<?xml version="1.0" encoding="UTF-8"?>
<svg id="Layer_1" xmlns="http://www.w3.org/2000/svg" version="1.1" viewBox="0 0 47 41">
  <!-- Generator: Adobe Illustrator 29.8.3, SVG Export Plug-In . SVG Version: 2.1.1 Build 3)  -->
  <defs>
    <style>
      .st0 {
        fill: #de053a;
      }
    </style>
  </defs>
  <path class="st0" d="M20.5,27.2c.3-.3.3-.7,0-1s-.7-.3-1,0-.3.7,0,1,.7.3,1,0Z"/>
  <path class="st0" d="M17.2,10.7c0,4.2,3.4,7.6,7.6,7.6s7.6-3.4,7.6-7.6-3.4-7.6-7.6-7.6-7.6,3.4-7.6,7.6ZM31.1,10.7c0,3.4-2.8,6.3-6.3,6.3s-6.3-2.8-6.3-6.3,2.8-6.3,6.3-6.3,6.3,2.8,6.3,6.3Z"/>
  <path class="st0" d="M12.2,38.4c.3.3.7.3,1,0l3.4-3.3c.6-.6.7-1.4.5-2.2l.7-.7c.4-.4.9-.6,1.4-.6h9.2c1.6,0,3.2-.6,4.4-1.8,0,0-.4.4,6.3-7.5,1-1.2.8-2.9-.3-3.9-1.2-1-2.9-.8-3.9.3l-4.1,4.2c-.5-.6-1.3-1-2.2-1h-7.7c-1.1-.5-2.3-.7-3.5-.7-3.3,0-6.3,1.5-7.8,4.4-.7-.1-1.4,0-1.9.6l-3.3,3.3c-.3.3-.3.7,0,1,0,0,7.8,7.9,7.8,7.9ZM17.4,22.6c1.1,0,2.1.2,3.1.6h8.2c.8,0,1.4.6,1.4,1.4s-.6,1.4-1.4,1.4h-5.7c-.4,0-.7.3-.7.7s.3.7.7.7h5.7c1.5,0,2.8-1.2,2.8-2.8s0-.2,0-.4c4-4.1,4.5-4.6,4.5-4.7.5-.6,1.4-.7,2-.2s.7,1.4.2,2l-6.2,7.4c-.9.9-2.1,1.4-3.4,1.4h-9.2c-.9,0-1.8.3-2.4,1l-.6.6-5.4-5.4c1.3-2.4,3.7-3.7,6.6-3.7h-.2ZM8.7,27.3c.2-.2.6-.3.9,0,.1,0-.2-.2,6,6,.3.3.3.7,0,1l-2.9,2.8-6.8-6.9,2.8-2.8h0Z"/>
  <path class="st0" d="M27.4,8.4h-1c0-.3-.2-.6-.4-.8h1.4v-.7h0q0,0-.1,0h-4.7v.8h0c0,.2,0,0,.1,0h.8c.8,0,1.3.2,1.5.6h-2.4v.7h0q0,.1.1.1h2.4c0,.3-.3.5-.6.7-.3.2-.7.2-1.2.2h-.7v.8h0c.7.9,1.6,1.9,2.8,3.3h1.4v-.2c-1.1-1.3-1.9-2.3-2.5-3,.6,0,1.1-.3,1.5-.6s.6-.8.7-1.3h1v-.7h0c0-.1,0,.1,0,.1Z"/>
</svg>