<?xml version="1.0" encoding="UTF-8"?>
<svg id="Layer_1" xmlns="http://www.w3.org/2000/svg" version="1.1" xmlns:xlink="http://www.w3.org/1999/xlink" viewBox="0 0 47 41">
  <!-- Generator: Adobe Illustrator 29.8.3, SVG Export Plug-In . SVG Version: 2.1.1 Build 3)  -->
  <defs>
    <style>
      .st0 {
        stroke: #000;
        stroke-linecap: round;
        stroke-linejoin: round;
        stroke-width: .8px;
      }

      .st0, .st1 {
        fill: none;
      }

      .st2 {
        fill: #de053a;
      }

      .st3 {
        display: none;
      }

      .st4 {
        clip-path: url(#clippath);
      }
    </style>
    <clipPath id="clippath">
      <rect class="st1" x="7.6" y="3.8" width="33.4" height="33.4"/>
    </clipPath>
  </defs>
  <g id="g3438" class="st3">
    <g id="g3440">
      <g class="st4">
        <g id="g3442">
          <g id="g3448">
            <path id="path3450" class="st0" d="M11.8,26.8c-1.2,1-2,2.5-2,4.2,0,3,2.5,5.5,5.5,5.5s4.1-1.3,5-3.2"/>
          </g>
          <g id="g3452">
            <path id="path3454" class="st0" d="M13.2,30c-.2.3-.3.7-.3,1.1,0,1.3,1,2.3,2.3,2.3s1.7-.5,2-1.3"/>
          </g>
          <g id="g3456">
            <path id="path3458" class="st0" d="M39.7,28.4c-.9-1.7-2.7-2.8-4.8-2.8-3,0-5.5,2.5-5.5,5.5s2.5,5.5,5.5,5.5,3.6-1,4.6-2.5"/>
          </g>
          <g id="g3460">
            <path id="path3462" class="st0" d="M37.2,31.1c0-1.3-1-2.3-2.3-2.3s-2.3,1-2.3,2.3,1,2.3,2.3,2.3,2.3-1,2.3-2.3Z"/>
          </g>
          <g id="g3464">
            <path id="path3466" class="st0" d="M24.5,29.3c0,.9-.8,1.7-1.7,1.7s-1.7-.8-1.7-1.7.8-1.7,1.7-1.7,1.7.8,1.7,1.7Z"/>
          </g>
          <g id="g3468">
            <path id="path3470" class="st0" d="M20.2,33.6h9.6"/>
          </g>
          <g id="g3472">
            <path id="path3474" class="st0" d="M20.2,21.8l5.2,2.3c.6.3,1.3.2,1.9-.2l2.7-2,3.5-2.8,3.3,3.3v1.2l-2,2"/>
          </g>
          <g id="g3476">
            <path id="path3478" class="st0" d="M22.7,27.6h7.9"/>
          </g>
          <g id="g3480">
            <path id="path3482" class="st0" d="M34.9,31.1l-2.5-4.5"/>
          </g>
          <g id="g3484">
            <path id="path3486" class="st0" d="M10.6,22.5l-1.9,1.9"/>
          </g>
          <g id="g3488">
            <path id="path3490" class="st0" d="M19.8,33.3l-8.6-4.4c-.3-.1-.4-.5-.2-.8l1.3-2.2c.2-.3.5-.4.8-.2l8.1,5.1c.2.2.3.5.2.7l-.8,1.4c-.1.3-.5.3-.7.2Z"/>
          </g>
          <g id="g3492">
            <path id="path3494" class="st0" d="M18.1,20.8l1.5.8c.7.4,1.6.4,2.3,0l2.1-1.1c.9-.5,2-.6,3-.2l3.4,1.2"/>
          </g>
          <g id="g3496">
            <path id="path3498" class="st0" d="M12.6,25.4l-3.8-5.6h2.8"/>
          </g>
          <g id="g3500">
            <path id="path3502" class="st0" d="M33.4,19.1l-1.5-1.5c-.3-.3-.9-.3-1.2,0l-.5.5"/>
          </g>
          <g id="g3504">
            <path id="path3506" class="st0" d="M35.1,21.1l-1.5,1.5c-.1.1-.1.4,0,.5l1.5,1.5"/>
          </g>
          <g id="g3508">
            <path id="path3510" class="st0" d="M15.6,4.5l7.3,2.3v6.1c0,4.3-3.1,8-7.3,8.8h0c-4.2-.8-7.3-4.5-7.3-8.8v-6.1l7.3-2.3"/>
          </g>
          <g id="g3512">
            <path id="path3514" class="st0" d="M10.9,8.7v4.2c0,2.9,1.9,5.4,4.7,6.2,2.7-.8,4.7-3.3,4.7-6.2v-4.2l-4.7-1.5-4.7,1.5Z"/>
          </g>
          <g id="g3516">
            <path id="path3518" class="st0" d="M13.5,12.8l1.5,1.5,2.7-2.7"/>
          </g>
          <g id="g3520">
            <path id="path3522" class="st0" d="M40.4,31.1h0"/>
          </g>
        </g>
      </g>
    </g>
  </g>
  <path class="st2" d="M35.4,22.8h-.9c0-3.2-.5-5.1-.9-6l.8-.3c.5,1.2,1,3.2.9,6.3Z"/>
  <path class="st2" d="M36.5,28.6l-.9-.2c1.8-8.2-.2-12.3-.7-13.2h-11.4v-.9h11.6c.1,0,.3,0,.4.2.1.2,3.1,4.3.9,14.1Z"/>
  <path class="st2" d="M33.2,36.3c-.1,0-.2,0-.3-.1-6.1-4.9-22.6-7.2-22.8-7.2-.1,0-.3-.1-.3-.2-4.8-8.9-1.3-16.2-.5-17.7l-1.3-1.8c-.1-.2,0-.5.1-.6,0,0,0,0,0,0,.4-.2,8.7-5.4,15.9-3.4,4.9,1.3,8.9,4.8,10.9,9.5l-.8.3c-1.9-4.4-5.7-7.7-10.3-8.9-5.9-1.7-13,2.1-14.7,3.1l1.2,1.7c.1.1.1.3,0,.5,0,0-4.7,7.5.3,16.8,2.1.3,16.5,2.5,22.6,7.1.7-.9,2.7-3.6,3-6.1l-13.9-8.4.5-.8,14.2,8.6c.1,0,.2.3.2.4-.3,3.3-3.4,7-3.5,7.2,0,.1-.2.2-.3.2h0Z"/>
  <path class="st2" d="M21.3,20.9c-2.1,0-3.7-1.7-3.7-3.7s1.7-3.7,3.7-3.7,3.7,1.7,3.7,3.7h0c0,2-1.7,3.7-3.7,3.7ZM21.3,14.4c-1.6,0-2.8,1.3-2.8,2.8,0,1.6,1.3,2.8,2.8,2.8s2.8-1.3,2.8-2.8h0c0-1.6-1.3-2.8-2.8-2.8Z"/>
  <path class="st2" d="M21.3,19c-1,0-1.8-.8-1.8-1.8,0-1,.8-1.8,1.8-1.8,1,0,1.8.8,1.8,1.8h0c0,1-.8,1.8-1.8,1.8ZM21.3,16.3c-.5,0-.9.4-.9.9,0,.5.4.9.9.9.5,0,.9-.4.9-.9h0c0-.5-.4-.9-.9-.9Z"/>
  <path class="st2" d="M31.5,34.6l-.9-.2.4-1.9c-6.8-6.2-23.4-12-23.5-12.1l.3-.9c.7.2,17.3,6.1,24,12.5.1.1.2.3.1.4l-.5,2.1Z"/>
</svg>