<?xml version="1.0" encoding="UTF-8"?>
<svg id="Layer_1" xmlns="http://www.w3.org/2000/svg" version="1.1" viewBox="0 0 47 41">
  <!-- Generator: Adobe Illustrator 29.8.3, SVG Export Plug-In . SVG Version: 2.1.1 Build 3)  -->
  <defs>
    <style>
      .st0 {
        fill: none;
        stroke: #de053a;
        stroke-linecap: round;
        stroke-linejoin: round;
        stroke-width: .8px;
      }
    </style>
  </defs>
  <g id="g3442">
    <g id="g3448">
      <path id="path3450" class="st0" d="M10.9,26.9c-1.2,1-2,2.5-2,4.2,0,3,2.5,5.5,5.5,5.5s4.1-1.3,5-3.2"/>
    </g>
    <g id="g3452">
      <path id="path3454" class="st0" d="M12.3,30.1c-.2.3-.3.7-.3,1.1,0,1.3,1,2.3,2.3,2.3s1.7-.5,2-1.3"/>
    </g>
    <g id="g3456">
      <path id="path3458" class="st0" d="M38.8,28.5c-.9-1.7-2.7-2.8-4.8-2.8-3,0-5.5,2.5-5.5,5.5s2.5,5.5,5.5,5.5,3.6-1,4.6-2.5"/>
    </g>
    <g id="g3460">
      <path id="path3462" class="st0" d="M36.3,31.2c0-1.3-1-2.3-2.3-2.3s-2.3,1-2.3,2.3,1,2.3,2.3,2.3,2.3-1,2.3-2.3Z"/>
    </g>
    <g id="g3464">
      <path id="path3466" class="st0" d="M23.6,29.4c0,.9-.8,1.7-1.7,1.7s-1.7-.8-1.7-1.7.8-1.7,1.7-1.7,1.7.8,1.7,1.7Z"/>
    </g>
    <g id="g3468">
      <path id="path3470" class="st0" d="M19.3,33.6h9.6"/>
    </g>
    <g id="g3472">
      <path id="path3474" class="st0" d="M19.3,21.9l5.2,2.3c.6.3,1.3.2,1.9-.2l2.7-2,3.5-2.8,3.3,3.3v1.2l-2,2"/>
    </g>
    <g id="g3476">
      <path id="path3478" class="st0" d="M21.8,27.7h7.9"/>
    </g>
    <g id="g3480">
      <path id="path3482" class="st0" d="M34.1,31.2l-2.5-4.5"/>
    </g>
    <g id="g3484">
      <path id="path3486" class="st0" d="M9.7,22.6l-1.9,1.9"/>
    </g>
    <g id="g3488">
      <path id="path3490" class="st0" d="M18.9,33.4l-8.6-4.4c-.3-.1-.4-.5-.2-.8l1.3-2.2c.2-.3.5-.4.8-.2l8.1,5.1c.2.2.3.5.2.7l-.8,1.4c-.1.3-.5.3-.7.2v.2Z"/>
    </g>
    <g id="g3492">
      <path id="path3494" class="st0" d="M17.2,20.9l1.5.8c.7.4,1.6.4,2.3,0l2.1-1.1c.9-.5,2-.6,3-.2l3.4,1.2"/>
    </g>
    <g id="g3496">
      <path id="path3498" class="st0" d="M11.7,25.5l-3.8-5.6h2.8"/>
    </g>
    <g id="g3500">
      <path id="path3502" class="st0" d="M32.6,19.2l-1.5-1.5c-.3-.3-.9-.3-1.2,0l-.5.5"/>
    </g>
    <g id="g3504">
      <path id="path3506" class="st0" d="M34.2,21.2l-1.5,1.5c0,.1,0,.4,0,.5l1.5,1.5"/>
    </g>
    <g id="g3508">
      <path id="path3510" class="st0" d="M14.7,4.6l7.3,2.3v6.1c0,4.3-3.1,8-7.3,8.8h0c-4.2-.8-7.3-4.5-7.3-8.8v-6.1l7.3-2.3"/>
    </g>
    <g id="g3512">
      <path id="path3514" class="st0" d="M10,8.8v4.2c0,2.9,1.9,5.4,4.7,6.2,2.7-.8,4.7-3.3,4.7-6.2v-4.2l-4.7-1.5s-4.7,1.5-4.7,1.5Z"/>
    </g>
    <g id="g3516">
      <path id="path3518" class="st0" d="M12.6,12.9l1.5,1.5,2.7-2.7"/>
    </g>
    <g id="g3520">
      <path id="path3522" class="st0" d="M39.6,31.2h0"/>
    </g>
  </g>
</svg>